<svg xmlns="http://www.w3.org/2000/svg" version="1.1" xmlns:xlink="http://www.w3.org/1999/xlink" xmlns:svgjs="http://svgjs.dev/svgjs" width="2000" height="1999" viewBox="0 0 2000 1999"><g transform="matrix(1,0,0,1,-0.431486880466764,-0.4312711370263287)"><svg viewBox="0 0 343 343" data-background-color="#ffffff" preserveAspectRatio="xMidYMid meet" height="1999" width="2000" xmlns="http://www.w3.org/2000/svg" xmlns:xlink="http://www.w3.org/1999/xlink"><g id="tight-bounds" transform="matrix(1,0,0,1,0.0740000000000407,0.07400000000001228)"><svg viewBox="0 0 342.85155851775386 342.85155851775386" height="342.85155851775386" width="342.85155851775386"><g><svg></svg></g><g><svg viewBox="0 0 342.85155851775386 342.85155851775386" height="342.85155851775386" width="342.85155851775386"><g><path d="M0 171.426c0-94.676 76.75-171.426 171.426-171.426 94.676 0 171.426 76.75 171.426 171.426 0 94.676-76.75 171.426-171.426 171.426-94.676 0-171.426-76.75-171.426-171.426zM171.426 332.861c89.158 0 161.435-72.277 161.435-161.435 0-89.158-72.277-161.435-161.435-161.435-89.158 0-161.435 72.277-161.435 161.435 0 89.158 72.277 161.435 161.435 161.435z" data-fill-palette-color="tertiary" fill="#ed2647" stroke="transparent"></path><ellipse rx="164.56874808852186" ry="164.56874808852186" cx="171.42577925887693" cy="171.42577925887693" fill="#ed2647" stroke="transparent" stroke-width="0" fill-opacity="1" data-fill-palette-color="tertiary"></ellipse></g><g transform="matrix(1,0,0,1,64.84655864529837,78.794424427357)"><svg viewBox="0 0 213.1584412271571 185.26270966303986" height="185.26270966303986" width="213.1584412271571"><g><svg viewBox="0 0 213.1584412271571 185.26270966303986" height="185.26270966303986" width="213.1584412271571"><g><svg viewBox="0 0 213.1584412271571 185.26270966303986" height="185.26270966303986" width="213.1584412271571"><g id="textblocktransform"><svg viewBox="0 0 213.1584412271571 185.26270966303986" height="185.26270966303986" width="213.1584412271571" id="textblock"><g><svg viewBox="0 0 213.1584412271571 126.65706336505686" height="126.65706336505686" width="213.1584412271571"><g transform="matrix(1,0,0,1,0,0)"><svg width="213.1584412271571" viewBox="-1.9 -37.9 68.15 40.9" height="126.65706336505686" data-palette-color="#ffffff"><path d="M8.35 0L1.1 0 8.1-34.9 21.25-34.9Q26.5-34.9 29.38-32.45 32.25-30 32.25-25.55L32.25-25.55Q32.25-22.7 31.25-20.33 30.25-17.95 28.45-16.28 26.65-14.6 24.15-13.68 21.65-12.75 18.7-12.75L18.7-12.75 10.9-12.75 8.35 0ZM14.05-28.5L12.2-19.15 19.65-19.15Q21.35-19.15 22.58-20.05 23.8-20.95 24.2-22.8L24.2-22.8Q24.45-23.95 24.6-24.68 24.75-25.4 24.75-25.8L24.75-25.8Q24.75-26.95 23.98-27.73 23.2-28.5 21.55-28.5L21.55-28.5 14.05-28.5ZM61.95-28.5L52.75-28.5 47.05 0 39.8 0 45.5-28.5 36.3-28.5 37.6-34.9 63.25-34.9 61.95-28.5Z" opacity="1" transform="matrix(1,0,0,1,0,0)" fill="#ffffff" class="wordmark-text-0" data-fill-palette-color="quaternary" id="text-0"></path></svg></g></svg></g><g transform="matrix(1,0,0,1,2.5,152.81080225966397)"><svg viewBox="0 0 208.1584412271571 32.451907403375884" height="32.451907403375884" width="208.1584412271571"><g transform="matrix(1,0,0,1,0,0)"><svg width="208.1584412271571" viewBox="-1.24 -43.6 381.19 60.27" height="32.451907403375884" data-palette-color="#ffffff"><path d="M14.87 0L1.76 0 1.76-2.08 5.47-2.64 5.47-34.18 1.76-34.74 1.76-36.82 13.79-36.82Q24.19-36.82 27.08-31.2L27.08-31.2Q28.15-29.13 28.15-26.21 28.15-23.29 27.19-21.04 26.22-18.8 24.32-17.24L24.32-17.24Q20.39-13.96 12.99-13.96L12.99-13.96 10.06-13.96 10.06-2.64 14.87-2.08 14.87 0ZM13.21-33.86L10.06-33.86 10.06-16.55 13.67-16.55Q18.53-16.55 21.09-19.14L21.09-19.14Q23.36-21.48 23.36-25.46L23.36-25.46Q23.36-29.57 21.19-31.59L21.19-31.59Q18.77-33.86 13.21-33.86L13.21-33.86ZM33.35-2.59L33.35-20.36 30.22-20.92 30.22-22.95 37.3-24.73 37.3-18.51Q42.92-24.73 45.75-24.73L45.75-24.73Q48.07-24.73 50.02-22.88L50.02-22.88 48.75-18.92 47.61-18.92Q47.61-20.12 45.78-20.7L45.78-20.7Q45.26-20.85 44.75-20.85L44.75-20.85Q42.16-20.85 37.3-15.65L37.3-15.65 37.3-2.59 42.14-2.03 42.14 0 30.22 0 30.22-2.03 33.35-2.59ZM73.02-3.56L73.46-1.27Q69.9 0.56 68.31 0.56L68.31 0.56Q64.75 0.56 64.75-2.47L64.75-2.47 64.75-3.22Q64.4-2.71 62.88-1.73 61.35-0.76 60.5-0.37L60.5-0.37Q58.47 0.56 57.42 0.56 56.37 0.56 55.69 0.48 55 0.39 54.27 0.15 53.54-0.1 52.83-0.54 52.12-0.98 51.56-1.68L51.56-1.68Q50.32-3.25 50.32-5.76L50.32-5.76Q50.32-9.23 52.78-10.6L52.78-10.6Q54.35-11.5 56.09-11.72 57.84-11.94 59.28-12.06L59.28-12.06Q62.01-12.3 64.75-12.35L64.75-12.35 64.75-17.48Q64.75-19.6 64.21-20.31L64.21-20.31Q63.31-21.56 61.4-21.56L61.4-21.56Q57.15-21.56 53.05-18.8L53.05-18.8 51.64-20.92Q57.35-24.73 61.87-24.73L61.87-24.73Q65.8-24.73 67.43-22.56L67.43-22.56Q68.7-20.87 68.7-17.77L68.7-17.77 68.7-4.93Q68.7-3.13 69.38-2.88L69.38-2.88Q69.63-2.81 70.02-2.81L70.02-2.81Q71-2.81 73.02-3.56L73.02-3.56ZM64.75-5.47L64.75-10.3Q57.81-10.03 55.86-8.91L55.86-8.91Q54.37-8.06 54.37-6.15L54.37-6.15Q54.37-3.39 56.49-2.76L56.49-2.76Q57.08-2.59 57.92-2.59 58.76-2.59 59.89-2.93 61.01-3.27 61.96-3.76L61.96-3.76Q63.77-4.64 64.75-5.47L64.75-5.47ZM82.28-40.6L82.28-2.59 85.38-2.03 85.38 0 75.12 0 75.12-2.03 78.3-2.59 78.3-36.21 75.12-36.82 75.12-38.79 82.28-40.6ZM82.47-12.99L93.38-21.61 91.21-22.12 91.21-24.15 101-24.15 101-22.12 97.19-21.56 86.87-13.62 97.12-3.22 98.71-2.42 101.34-2.03 101.34 0 94.48 0 82.47-12.99ZM119.17-21.56L119.17-21.56Q115.48-21.56 111.55-18.97L111.55-18.97 111.55-2.59 114.65-2.03 114.65 0 104.39 0 104.39-2.03 107.57-2.59 107.57-36.21 104.39-36.82 104.39-38.79 111.55-40.6 111.55-21.56Q113.99-23.24 116.35-23.99 118.7-24.73 120.36-24.73 122.02-24.73 123.34-24.27 124.66-23.8 125.59-22.85L125.59-22.85Q127.54-20.87 127.54-17.19L127.54-17.19 127.54-2.59 130.64-2.03 130.64 0 120.41 0 120.41-2.03 123.56-2.59 123.56-16.72Q123.56-21.56 119.17-21.56ZM156.37-3.56L156.81-1.27Q153.25 0.56 151.66 0.56L151.66 0.56Q148.1 0.56 148.1-2.47L148.1-2.47 148.1-3.22Q147.75-2.71 146.23-1.73 144.7-0.76 143.85-0.37L143.85-0.37Q141.82 0.56 140.77 0.56 139.72 0.56 139.04 0.48 138.35 0.39 137.62 0.15 136.89-0.1 136.18-0.54 135.47-0.98 134.91-1.68L134.91-1.68Q133.67-3.25 133.67-5.76L133.67-5.76Q133.67-9.23 136.13-10.6L136.13-10.6Q137.7-11.5 139.44-11.72 141.19-11.94 142.63-12.06L142.63-12.06Q145.36-12.3 148.1-12.35L148.1-12.35 148.1-17.48Q148.1-19.6 147.56-20.31L147.56-20.31Q146.66-21.56 144.75-21.56L144.75-21.56Q140.5-21.56 136.4-18.8L136.4-18.8 134.99-20.92Q140.7-24.73 145.21-24.73L145.21-24.73Q149.15-24.73 150.78-22.56L150.78-22.56Q152.05-20.87 152.05-17.77L152.05-17.77 152.05-4.93Q152.05-3.13 152.73-2.88L152.73-2.88Q152.98-2.81 153.37-2.81L153.37-2.81Q154.35-2.81 156.37-3.56L156.37-3.56ZM148.1-5.47L148.1-10.3Q141.16-10.03 139.21-8.91L139.21-8.91Q137.72-8.06 137.72-6.15L137.72-6.15Q137.72-3.39 139.84-2.76L139.84-2.76Q140.43-2.59 141.27-2.59 142.11-2.59 143.24-2.93 144.36-3.27 145.31-3.76L145.31-3.76Q147.12-4.64 148.1-5.47L148.1-5.47ZM161.11-2.59L161.11-20.36 157.98-20.92 157.98-22.95 165.06-24.73 165.06-18.51Q170.68-24.73 173.51-24.73L173.51-24.73Q175.83-24.73 177.78-22.88L177.78-22.88 176.51-18.92 175.37-18.92Q175.37-20.12 173.54-20.7L173.54-20.7Q173.02-20.85 172.51-20.85L172.51-20.85Q169.92-20.85 165.06-15.65L165.06-15.65 165.06-2.59 169.9-2.03 169.9 0 157.98 0 157.98-2.03 161.11-2.59ZM197.75-36.82L228.86-36.82 229.44-28.98 227.25-28.98 226-33.86 215.58-33.86 215.58-2.64 220.95-2.08 220.95 0 205.69 0 205.69-2.08 211.01-2.64 211.01-33.86 200.63-33.86 199.32-28.98 197.17-28.98 197.75-36.82ZM236.21-2.59L236.21-20.36 233.08-20.92 233.08-22.95 240.16-24.73 240.16-18.51Q245.78-24.73 248.61-24.73L248.61-24.73Q250.93-24.73 252.88-22.88L252.88-22.88 251.61-18.92 250.46-18.92Q250.46-20.12 248.63-20.7L248.63-20.7Q248.12-20.85 247.61-20.85L247.61-20.85Q245.02-20.85 240.16-15.65L240.16-15.65 240.16-2.59 245-2.03 245 0 233.08 0 233.08-2.03 236.21-2.59ZM261.23-24.73L261.23-2.59 264.36-2.03 264.36 0 254.1 0 254.1-2.03 257.28-2.59 257.28-20.36 254.1-20.92 254.1-22.95 261.23-24.73ZM257.14-32.19Q256.74-32.62 256.49-33.15 256.25-33.69 256.25-34.22 256.25-34.74 256.49-35.27 256.74-35.79 257.13-36.23L257.13-36.23Q258.03-37.21 258.78-37.21 259.52-37.21 260.05-36.94 260.57-36.67 260.99-36.23L260.99-36.23Q261.89-35.23 261.89-34.46 261.89-33.69 261.63-33.15 261.38-32.62 260.99-32.18L260.99-32.18Q260.06-31.23 259.29-31.23 258.52-31.23 258.03-31.49 257.54-31.76 257.14-32.19ZM279.54 0.56L279.54 0.56Q276.39 0.56 273.58-0.63L273.58-0.63 273.58 11.08 276.68 11.65 276.68 13.67 266.43 13.67 266.43 11.65 269.6 11.08 269.6-20.53 266.43-21.12 266.43-23.1 273.58-24.73 273.58-21.51Q277.86-24.73 282.03-24.73L282.03-24.73Q286.5-24.73 289.36-21.44L289.36-21.44Q292.26-18.09 292.26-12.67L292.26-12.67Q292.26-7.28 289.04-3.54L289.04-3.54Q285.52 0.56 279.54 0.56ZM273.58-19.04L273.58-19.04 273.58-5.1Q275.68-2.29 280.25-2.29L280.25-2.29Q283.76-2.29 285.96-5.08L285.96-5.08Q288.01-7.64 288.01-11.25L288.01-11.25Q288.01-15.72 286.16-18.51L286.16-18.51Q284.16-21.56 280.71-21.56 277.27-21.56 273.58-19.04ZM318.99-3.56L319.43-1.27Q315.87 0.56 314.28 0.56L314.28 0.56Q310.72 0.56 310.72-2.47L310.72-2.47 310.72-3.22Q310.38-2.71 308.85-1.73 307.32-0.76 306.47-0.37L306.47-0.37Q304.44 0.56 303.39 0.56 302.34 0.56 301.66 0.48 300.98 0.39 300.24 0.15 299.51-0.1 298.8-0.54 298.1-0.98 297.53-1.68L297.53-1.68Q296.29-3.25 296.29-5.76L296.29-5.76Q296.29-9.23 298.75-10.6L298.75-10.6Q300.32-11.5 302.06-11.72 303.81-11.94 305.25-12.06L305.25-12.06Q307.98-12.3 310.72-12.35L310.72-12.35 310.72-17.48Q310.72-19.6 310.18-20.31L310.18-20.31Q309.28-21.56 307.37-21.56L307.37-21.56Q303.13-21.56 299.02-18.8L299.02-18.8 297.61-20.92Q303.32-24.73 307.84-24.73L307.84-24.73Q311.77-24.73 313.4-22.56L313.4-22.56Q314.67-20.87 314.67-17.77L314.67-17.77 314.67-4.93Q314.67-3.13 315.36-2.88L315.36-2.88Q315.6-2.81 315.99-2.81L315.99-2.81Q316.97-2.81 318.99-3.56L318.99-3.56ZM310.72-5.47L310.72-10.3Q303.78-10.03 301.83-8.91L301.83-8.91Q300.34-8.06 300.34-6.15L300.34-6.15Q300.34-3.39 302.47-2.76L302.47-2.76Q303.05-2.59 303.89-2.59 304.74-2.59 305.86-2.93 306.98-3.27 307.93-3.76L307.93-3.76Q309.74-4.64 310.72-5.47L310.72-5.47ZM327.76-21.29L327.76-7.47Q327.76-2.59 331.71-2.59L331.71-2.59Q333.79-2.59 335.74-4.3L335.74-4.3 337.06-2.69Q334.99-0.98 333.23-0.21 331.47 0.56 330.13 0.56 328.78 0.56 327.53-0.02 326.27-0.61 325.44-1.71L325.44-1.71Q323.8-3.83 323.8-7.74L323.8-7.74 323.8-21.29 320.7-21.29 320.7-23.41 323.8-24.15 323.8-27.42 326.68-30.3 327.76-30.3 327.76-24.15 335.82-24.15 335.82-21.29 327.76-21.29ZM352.71-21.56L352.71-21.56Q349.02-21.56 345.09-18.97L345.09-18.97 345.09-2.59 348.19-2.03 348.19 0 337.94 0 337.94-2.03 341.11-2.59 341.11-36.21 337.94-36.82 337.94-38.79 345.09-40.6 345.09-21.56Q347.53-23.24 349.89-23.99 352.25-24.73 353.91-24.73 355.57-24.73 356.88-24.27 358.2-23.8 359.13-22.85L359.13-22.85Q361.08-20.87 361.08-17.19L361.08-17.19 361.08-2.59 364.18-2.03 364.18 0 353.96 0 353.96-2.03 357.1-2.59 357.1-16.72Q357.1-21.56 352.71-21.56ZM373.83-24.73L373.83-2.59 376.95-2.03 376.95 0 366.7 0 366.7-2.03 369.87-2.59 369.87-20.36 366.7-20.92 366.7-22.95 373.83-24.73ZM369.74-32.19Q369.34-32.62 369.09-33.15 368.85-33.69 368.85-34.22 368.85-34.74 369.09-35.27 369.34-35.79 369.73-36.23L369.73-36.23Q370.63-37.21 371.37-37.21 372.12-37.21 372.64-36.94 373.17-36.67 373.58-36.23L373.58-36.23Q374.49-35.23 374.49-34.46 374.49-33.69 374.23-33.15 373.97-32.62 373.58-32.18L373.58-32.18Q372.66-31.23 371.89-31.23 371.12-31.23 370.63-31.49 370.14-31.76 369.74-32.19Z" opacity="1" transform="matrix(1,0,0,1,0,0)" fill="#ffffff" class="slogan-text-1" data-fill-palette-color="quaternary" id="text-1"></path></svg></g></svg></g></svg></g></svg></g><g></g></svg></g></svg></g></svg></g><defs></defs></svg><rect width="342.85155851775386" height="342.85155851775386" fill="none" stroke="none" visibility="hidden"></rect></g></svg></g></svg>